<svg xmlns="http://www.w3.org/2000/svg" viewBox="0 0 400 400" role="img" aria-label="Gyertyatartó"><title>Gyertyatartó</title><style>:root{--glaze:#eee5d6}</style><defs><linearGradient id="g" x1="0" x2="1" y1="0" y2="0"><stop offset="0" style="stop-color:color-mix(in srgb, var(--glaze) 86%, #000000)"/><stop offset=".32" style="stop-color:color-mix(in srgb, var(--glaze) 78%, #ffffff)"/><stop offset=".68" style="stop-color:var(--glaze)"/><stop offset="1" style="stop-color:color-mix(in srgb, var(--glaze) 70%, #000000)"/></linearGradient></defs><ellipse cx="200" cy="338" rx="115" ry="12" fill="#3b2f2a" opacity=".14"/><rect x="192" y="170" width="16" height="90" fill="#f3e9d2"/><path d="M200 104 Q217 132 200 154 Q183 132 200 104Z" fill="#e8a33d"/><path d="M200 126 Q208 140 200 150 Q192 140 200 126Z" fill="#f6d27a"/><ellipse cx="200" cy="322" rx="112" ry="22" style="fill:color-mix(in srgb, var(--glaze) 70%, #000000)"/><ellipse cx="200" cy="314" rx="112" ry="22" style="fill:var(--glaze)"/><ellipse cx="200" cy="312" rx="86" ry="14" style="fill:color-mix(in srgb, var(--glaze) 88%, #000000)"/><path d="M168 312 L170 252 Q200 262 230 252 L232 312 Q200 322 168 312Z" fill="url(#g)"/><ellipse cx="200" cy="252" rx="31" ry="7" style="fill:color-mix(in srgb, var(--glaze) 55%, #000000)"/><rect x="192" y="190" width="16" height="66" fill="#f3e9d2"/></svg>
